<svg version="1" xmlns="http://www.w3.org/2000/svg" width="557.333" height="300" viewBox="0 0 418 225"><path d="M9 53.5V102h22.3l22.2-.1 10.3-9.7L74 82.4V36.1L63.9 20.5 53.7 5H9v48.5zm38 0V79H36V28h11v25.5zM94.2 20.6L84 36.2V102h27V61h11v41h27V5h-44.7L94.2 20.6zM122 35v9h-5c-2.7 0-5-.3-5-.6 0-.9 9.1-17.4 9.6-17.4.2 0 .4 4 .4 9zM159 53.5V102h27V28h11v74h27V49h11v53h27V25h-37.5l-10-10-10-10H159v48.5zM282.8 20.4L273 35.7V102h27V61h11v41h27V5h-22.7l-22.8.1-9.7 15.3zM311 35.5V45h-5c-3.9 0-5-.3-5-1.6 0-2.1 8.1-17.4 9.2-17.4.4 0 .8 4.3.8 9.5zM364.7 10.2c-1.9 2.9-6.4 9.9-10 15.5L348 35.9V61h41v19h-41v22h51.5l6.8-7.4 6.7-7.5V44h-39V28h39V5h-44.9l-3.4 5.2zM3 144v32.9l10.1 15.6L23.3 208H41v13h27v-79H41v43H30v-53h38v-21H3v33zM78 159.5V208h27v-19c0-11.3.4-19 .9-19 .6 0 3 2.1 5.5 4.7l4.6 4.8V221h27v-46.6l-7.1-7-7.2-6.9 7.2-.3 7.1-.3-.1-16.7v-16.7l-9.9-7.8-9.9-7.7H78v48.5zm38-17.5v8h-11v-16h11v8zM163.2 126.9L153 142.7V208h27v-41h11v41h27v-97h-44.6l-10.2 15.9zm27.8 13.6v9.5h-5c-2.7 0-5-.2-5-.6 0-.6 9.4-18.4 9.8-18.4.1 0 .2 4.3.2 9.5zM229 122.5V134h19v87h27v-87h18v-23h-64v11.5zM304 159.5V208h27v-97h-27v48.5zM357.7 116.2c-1.9 2.9-6.4 9.9-10 15.5l-6.7 10.2V167h41v19h-41v22h51.5l6.8-7.4 6.7-7.5V150h-39v-16h39v-23h-44.9l-3.4 5.2z"/></svg>
